<svg width="42" height="42" viewBox="0 0 42 42" fill="none" xmlns="http://www.w3.org/2000/svg">
<path d="M21 42C32.598 42 42 32.598 42 21C42 9.40202 32.598 0 21 0C9.40202 0 0 9.40202 0 21C0 32.598 9.40202 42 21 42Z" fill="#187BCD"/>
<path fill-rule="evenodd" clip-rule="evenodd" d="M35.7387 35.9568C31.7757 39.863 26.424 42.0364 20.8595 41.9993C15.295 41.9622 9.9728 39.7177 6.06213 35.759C6.56227 34.3759 7.53365 33.2132 8.80573 32.4751C9.66308 31.8412 10.5927 31.3115 11.5751 30.897C10.0814 25.7639 14.142 23.2405 15.6956 22.514C15.6956 24.8838 17.9146 23.3112 20.6683 23.3411C22.9355 23.3663 27.4189 25.6484 27.4189 22.6377C29.9131 23.3758 32.6316 28.129 30.7606 31.0493C31.5277 31.4244 32.2524 31.8805 32.9224 32.4099C34.2322 33.2434 35.2241 34.4927 35.7387 35.9574V35.9568Z" fill="#677079"/>
<path fill-rule="evenodd" clip-rule="evenodd" d="M16.3324 26.2873L26.4722 26.3485V28.6843L26.4675 28.7203C26.4604 28.8261 26.4445 28.9311 26.4199 29.0343L26.3859 29.266L26.3655 29.3143C25.709 32.7626 22.8363 34.0954 21.0625 35.0237C19.1936 34.0056 16.5513 32.1714 16.3413 28.9262L16.3324 28.8861V28.7502C16.331 28.7033 16.3301 28.6564 16.3297 28.6095C16.3297 28.634 16.3318 28.6571 16.3324 28.6816V26.2873Z" fill="#F9DCA4"/>
<path opacity="0.11" fill-rule="evenodd" clip-rule="evenodd" d="M26.4729 26.2446V28.9664C26.4709 29.2187 26.4494 29.4705 26.4084 29.7194C26.3569 30.0276 26.2702 30.3288 26.1501 30.6172C22.627 33.2779 17.0134 31.0956 16.117 26.5511L26.4729 26.2446Z" fill="black"/>
<path fill-rule="evenodd" clip-rule="evenodd" d="M12.3037 17.15C8.94645 18.0131 11.8008 22.1043 13.9124 22.0867C13.0608 20.5611 12.5145 18.8843 12.3037 17.15ZM29.7922 17.15C33.1495 18.0131 30.2951 22.1043 28.1829 22.086C29.0346 20.5607 29.5812 18.8842 29.7922 17.15Z" fill="#F9DCA4"/>
<path fill-rule="evenodd" clip-rule="evenodd" d="M20.8865 7.72101C34.8342 7.72101 29.3987 29.7717 20.8865 29.7717C12.8467 29.7717 6.93885 7.72101 20.8865 7.72101Z" fill="#FFE8BE"/>
<path fill-rule="evenodd" clip-rule="evenodd" d="M14.3038 15.0228C14.4228 15.1532 14.511 15.3087 14.562 15.4777C14.613 15.6467 14.6255 15.825 14.5985 15.9995C14.5715 16.174 14.5057 16.3402 14.406 16.4859C14.3064 16.6316 14.1753 16.7531 14.0224 16.8415C13.037 17.6522 13.001 20.4794 13.001 20.4794C12.6204 20.1016 12.6292 18.0777 11.8042 16.9081C10.9791 15.7385 10.4232 7.55457 15.0371 4.57855C14.7536 4.91204 14.5492 5.3054 14.4394 5.72912C14.3296 6.15285 14.3172 6.59594 14.403 7.02516C14.403 7.02516 17.6081 2.42894 22.9253 2.56147C22.5038 2.79132 22.1354 3.10741 21.8442 3.48915C21.553 3.87089 21.3454 4.3097 21.2351 4.777C21.2351 4.777 25.8837 2.85914 29.7575 5.14059C28.7503 5.41896 27.7978 5.8664 26.9405 6.4638C28.8216 6.51545 30.6396 6.86477 32.0104 8.08399C31.7154 8.1787 31.4423 8.33158 31.2074 8.53359C30.9725 8.7356 30.7804 8.98264 30.6425 9.26013C30.5047 9.53762 30.4238 9.83992 30.4048 10.1492C30.3857 10.4584 30.4288 10.7684 30.5316 11.0607C31.1133 13.4414 31.1677 15.6562 30.6043 16.8469C30.0409 18.0376 29.7751 17.2689 29.4224 19.7658C29.4051 19.9345 29.3489 20.0969 29.258 20.2401C29.1672 20.3832 29.0443 20.5034 28.8991 20.5909C28.8855 20.7717 29.1587 18.0383 28.454 17.3104C27.7499 16.5832 28.1923 15.6895 28.4737 15.1608C30.4378 11.4725 24.5557 9.80137 21.3405 9.80545C18.552 9.80885 11.8259 11.0763 14.3038 15.0228Z" fill="#8A5C42"/>
<path fill-rule="evenodd" clip-rule="evenodd" d="M13.4495 33.4111C13.4699 33.437 20.5297 42.5743 28.8291 33.2752C27.8267 36.029 23.503 38.216 21.0299 38.2092C16.3066 38.1956 13.6928 34.4034 13.4495 33.4111Z" fill="#434955"/>
<path fill-rule="evenodd" clip-rule="evenodd" d="M24.6944 41.6758C24.4158 41.7247 24.1358 41.7675 23.8537 41.8063V35.7326C23.8641 35.6309 23.9138 35.5372 23.9923 35.4717C24.0708 35.4062 24.1718 35.3739 24.2737 35.3819C24.3758 35.3738 24.477 35.4059 24.5556 35.4714C24.6342 35.537 24.6841 35.6307 24.6944 35.7326V41.6758ZM18.0206 41.7886C17.7388 41.7483 17.4586 41.703 17.1799 41.6527V35.7326C17.1903 35.6309 17.24 35.5372 17.3185 35.4717C17.397 35.4062 17.498 35.3739 17.5999 35.3819C17.7021 35.3736 17.8035 35.4056 17.8822 35.4712C17.961 35.5368 18.011 35.6306 18.0213 35.7326L18.0206 41.7886Z" fill="#E6E6E6"/>
</svg>
