<svg width="20" height="20" viewBox="0 0 20 20" fill="none" xmlns="http://www.w3.org/2000/svg">
<path d="M9.58333 20C8.89417 20 8.33333 19.4392 8.33333 18.75V17.2133C7.66739 17.0556 7.01889 16.8317 6.3975 16.545L5.28167 17.6608C5.16581 17.7773 5.02801 17.8695 4.87624 17.9323C4.72447 17.9951 4.56175 18.0272 4.3975 18.0267C4.06333 18.0267 3.74917 17.8967 3.51417 17.6608L2.335 16.4825C2.10107 16.2479 1.96971 15.9301 1.96971 15.5988C1.96971 15.2674 2.10107 14.9496 2.335 14.715L3.45167 13.5983C3.16651 12.9781 2.94375 12.331 2.78667 11.6667H1.25C0.560833 11.6667 0 11.1058 0 10.4167V9.58333C0 8.89417 0.560833 8.33333 1.25 8.33333H2.79C2.94667 7.66917 3.17083 7.02167 3.45583 6.40167L2.33917 5.28583C2.10503 5.05132 1.97353 4.73347 1.97353 4.40208C1.97353 4.0707 2.10503 3.75285 2.33917 3.51833L3.51833 2.33917C3.75417 2.10333 4.06833 1.97333 4.4025 1.97333C4.73667 1.97333 5.05 2.10417 5.28583 2.33917L6.40167 3.45333C7.02083 3.16833 7.66917 2.945 8.33333 2.78833V1.25C8.33333 0.560833 8.89417 0 9.58333 0H10.4167C11.1058 0 11.6667 0.560833 11.6667 1.25V2.79C12.3309 2.94673 12.9778 3.1698 13.5975 3.45583L14.7142 2.34C14.8301 2.22372 14.9679 2.13159 15.1197 2.06894C15.2715 2.00629 15.4341 1.97436 15.5983 1.975C15.9325 1.975 16.2467 2.105 16.4825 2.34L17.6617 3.51917C17.8954 3.7539 18.0266 4.07166 18.0266 4.40292C18.0266 4.73417 17.8954 5.05193 17.6617 5.28667L16.5483 6.40167C16.8333 7.02083 17.0567 7.66917 17.2142 8.33417H18.75C19.4392 8.33417 20 8.895 20 9.58417V10.4175C20 11.1067 19.4392 11.6675 18.75 11.6675H17.2133C17.0556 12.3332 16.8317 12.9814 16.545 13.6025L17.6608 14.7183C17.8967 14.9542 18.0267 15.2683 18.0267 15.6025C18.0267 15.9367 17.8967 16.2508 17.6608 16.4858L16.4825 17.6642C16.2467 17.9 15.9333 18.03 15.5983 18.03C15.2633 18.03 14.95 17.9 14.7142 17.6642L13.5967 16.5483C12.9775 16.8333 12.33 17.0567 11.6667 17.2133V18.75C11.6667 19.4392 11.1058 20 10.4167 20H9.58333ZM6.31167 15.625C6.37583 15.625 6.44 15.64 6.4975 15.6683C7.23667 16.0367 8.0225 16.3058 8.8325 16.4692C8.92662 16.4888 9.01115 16.5402 9.07197 16.6146C9.13279 16.6891 9.16622 16.7822 9.16667 16.8783V18.75C9.16667 18.8047 9.17744 18.8589 9.19838 18.9095C9.21932 18.96 9.25001 19.0059 9.2887 19.0446C9.3274 19.0833 9.37333 19.114 9.42388 19.1349C9.47443 19.1559 9.52862 19.1667 9.58333 19.1667H10.4167C10.4714 19.1667 10.5256 19.1559 10.5761 19.1349C10.6267 19.114 10.6726 19.0833 10.7113 19.0446C10.75 19.0059 10.7807 18.96 10.8016 18.9095C10.8226 18.8589 10.8333 18.8047 10.8333 18.75V16.8783C10.8333 16.6808 10.9742 16.5083 11.1675 16.47C11.9758 16.3072 12.7592 16.0388 13.4975 15.6717C13.5755 15.6324 13.664 15.6189 13.7502 15.633C13.8364 15.647 13.916 15.688 13.9775 15.75L15.3033 17.0742C15.342 17.113 15.388 17.1438 15.4386 17.1648C15.4893 17.1858 15.5435 17.1966 15.5983 17.1966C15.6531 17.1966 15.7074 17.1858 15.758 17.1648C15.8086 17.1438 15.8546 17.113 15.8933 17.0742L17.0717 15.8958C17.1498 15.8177 17.1937 15.7117 17.1937 15.6012C17.1937 15.4908 17.1498 15.3848 17.0717 15.3067L15.7475 13.9817C15.6858 13.9199 15.6451 13.8404 15.631 13.7543C15.617 13.6682 15.6303 13.5798 15.6692 13.5017C16.0375 12.7633 16.3067 11.9775 16.47 11.1667C16.4894 11.0726 16.5405 10.9881 16.6149 10.9274C16.6893 10.8667 16.7823 10.8335 16.8783 10.8333H18.75C18.8047 10.8333 18.8589 10.8226 18.9095 10.8016C18.96 10.7807 19.0059 10.75 19.0446 10.7113C19.0833 10.6726 19.114 10.6267 19.1349 10.5761C19.1559 10.5256 19.1667 10.4714 19.1667 10.4167V9.58333C19.1667 9.52862 19.1559 9.47443 19.1349 9.42388C19.114 9.37333 19.0833 9.3274 19.0446 9.2887C19.0059 9.25001 18.96 9.21932 18.9095 9.19838C18.8589 9.17744 18.8047 9.16667 18.75 9.16667H16.8775C16.7814 9.16649 16.6882 9.13315 16.6139 9.07226C16.5395 9.01138 16.4884 8.92669 16.4692 8.8325C16.3065 8.02361 16.0381 7.23965 15.6708 6.50083C15.632 6.4227 15.6186 6.33434 15.6327 6.24822C15.6468 6.1621 15.6875 6.08256 15.7492 6.02083L17.0708 4.6975C17.1489 4.61936 17.1928 4.5134 17.1928 4.40292C17.1928 4.29243 17.1489 4.18647 17.0708 4.10833L15.8917 2.92917C15.853 2.89036 15.807 2.85958 15.7564 2.83857C15.7057 2.81757 15.6515 2.80676 15.5967 2.80676C15.5419 2.80676 15.4876 2.81757 15.437 2.83857C15.3864 2.85958 15.3404 2.89036 15.3017 2.92917L13.9767 4.25333C13.9149 4.31527 13.8352 4.35612 13.7488 4.37004C13.6625 4.38396 13.5739 4.37023 13.4958 4.33083C12.7579 3.9638 11.9747 3.69565 11.1667 3.53333C11.0727 3.51383 10.9883 3.46262 10.9276 3.38827C10.8669 3.31392 10.8336 3.22097 10.8333 3.125V1.25C10.8333 1.19528 10.8226 1.1411 10.8016 1.09055C10.7807 1.04 10.75 0.994063 10.7113 0.955372C10.6726 0.916681 10.6267 0.88599 10.5761 0.86505C10.5256 0.844111 10.4714 0.833333 10.4167 0.833333H9.58333C9.52862 0.833333 9.47443 0.844111 9.42388 0.86505C9.37333 0.88599 9.3274 0.916681 9.2887 0.955372C9.25001 0.994063 9.21932 1.04 9.19838 1.09055C9.17744 1.1411 9.16667 1.19528 9.16667 1.25V3.12333C9.1663 3.21954 9.13278 3.31267 9.07176 3.38705C9.01074 3.46143 8.92594 3.5125 8.83167 3.53167C8.02333 3.69417 7.23917 3.9625 6.50083 4.33C6.42271 4.36855 6.33447 4.38165 6.24852 4.36745C6.16257 4.35325 6.08324 4.31246 6.02167 4.25083L4.69667 2.92833C4.65802 2.88938 4.61203 2.85849 4.56137 2.83743C4.5107 2.81637 4.45636 2.80556 4.40149 2.80564C4.34662 2.80572 4.29232 2.81667 4.24171 2.83788C4.1911 2.85908 4.1452 2.89011 4.10667 2.92917L2.92833 4.10833C2.85022 4.18647 2.80634 4.29243 2.80634 4.40292C2.80634 4.5134 2.85022 4.61936 2.92833 4.6975L4.25333 6.02167C4.31501 6.0834 4.35574 6.16293 4.3698 6.24905C4.38385 6.33517 4.37052 6.42353 4.33167 6.50167C3.96498 7.24044 3.69659 8.02405 3.53333 8.8325C3.514 8.92662 3.46286 9.01122 3.38849 9.07208C3.31413 9.13293 3.22109 9.16633 3.125 9.16667H1.25C1.19528 9.16667 1.1411 9.17744 1.09055 9.19838C1.04 9.21932 0.994063 9.25001 0.955372 9.2887C0.916681 9.3274 0.88599 9.37333 0.86505 9.42388C0.844111 9.47443 0.833333 9.52862 0.833333 9.58333V10.4167C0.833333 10.4714 0.844111 10.5256 0.86505 10.5761C0.88599 10.6267 0.916681 10.6726 0.955372 10.7113C0.994063 10.75 1.04 10.7807 1.09055 10.8016C1.1411 10.8226 1.19528 10.8333 1.25 10.8333H3.12167C3.31917 10.8333 3.49083 10.9742 3.53 11.1675C3.69333 11.9758 3.96167 12.76 4.32833 13.4992C4.36718 13.5773 4.38052 13.6657 4.36647 13.7518C4.35241 13.8379 4.31167 13.9174 4.25 13.9792L2.925 15.3042C2.84689 15.3823 2.80301 15.4883 2.80301 15.5988C2.80301 15.7092 2.84689 15.8152 2.925 15.8933L4.10417 17.0717C4.14269 17.1106 4.18856 17.1416 4.23913 17.1627C4.28969 17.1838 4.34395 17.1947 4.39875 17.1947C4.45355 17.1947 4.50781 17.1838 4.55837 17.1627C4.60894 17.1416 4.65481 17.1106 4.69333 17.0717L6.0175 15.7475C6.05588 15.7085 6.10167 15.6775 6.15219 15.6565C6.20272 15.6355 6.25694 15.6248 6.31167 15.625Z" fill="#162E50"/>
<path d="M9.99998 14.1666C7.70248 14.1666 5.83331 12.2974 5.83331 9.99992C5.83331 7.70242 7.70248 5.83325 9.99998 5.83325C12.2975 5.83325 14.1666 7.70242 14.1666 9.99992C14.1666 12.2974 12.2975 14.1666 9.99998 14.1666ZM9.99998 6.66659C8.16165 6.66659 6.66665 8.16159 6.66665 9.99992C6.66665 11.8383 8.16165 13.3333 9.99998 13.3333C11.8383 13.3333 13.3333 11.8383 13.3333 9.99992C13.3333 8.16159 11.8383 6.66659 9.99998 6.66659Z" fill="#162E50"/>
</svg>
